<?xml version="1.0" encoding="utf-8"?>
<!-- Generator: Adobe Illustrator 26.3.1, SVG Export Plug-In . SVG Version: 6.00 Build 0)  -->
<svg version="1.1" id="Layer_1" xmlns="http://www.w3.org/2000/svg" xmlns:xlink="http://www.w3.org/1999/xlink" x="0px" y="0px"
	 viewBox="0 0 296.4 80.1" style="enable-background:new 0 0 296.4 80.1;" xml:space="preserve">
<g>
	<path d="M18.4,15.2L18.4,15.2c-3.3-3.3-3.7-8.7-0.6-12.2c3.9-4.4,11.1-4,14.3,1.4c2,3.4,1.3,7.8-1.5,10.6l-0.1,0.1
		C27.2,18.6,21.8,18.6,18.4,15.2z"/>
	<path d="M61.9,2.6L61.9,2.6c3.4,3.4,3.4,9,0,12.5l-9.4,9.4c-6.9,6.9-18,6.9-24.9,0l0,0L49.4,2.6C52.9-0.9,58.5-0.9,61.9,2.6z"/>
	<path d="M15.2,61.7L15.2,61.7C11.9,65,6.5,65.4,3,62.3c-4.4-3.9-4-11.1,1.4-14.3c3.4-2,7.8-1.3,10.6,1.5l0.1,0.1
		C18.6,52.9,18.6,58.4,15.2,61.7z"/>
	<path d="M2.6,18.2L2.6,18.2c3.4-3.4,9-3.4,12.5,0l9.4,9.4c6.9,6.9,6.9,18,0,24.9l0,0L2.6,30.7C-0.9,27.3-0.9,21.7,2.6,18.2z"/>
	<path d="M64.5,18.7L64.5,18.7c3.3-3.3,8.7-3.7,12.2-0.6c4.4,3.9,4,11.1-1.4,14.3c-3.4,2-7.8,1.3-10.6-1.5l-0.1-0.1
		C61.2,27.5,61.2,22.1,64.5,18.7z"/>
	<path d="M77.2,62.2L77.2,62.2c-3.4,3.4-9,3.4-12.5,0l-9.4-9.4c-6.9-6.9-6.9-18,0-24.9l0,0l21.8,21.8C80.6,53.2,80.6,58.8,77.2,62.2
		z"/>
	<path d="M61.7,64.8L61.7,64.8c3.3,3.3,3.7,8.7,0.6,12.2c-3.9,4.4-11.1,4-14.3-1.4c-2-3.4-1.3-7.8,1.5-10.6l0.1-0.1
		C52.9,61.5,58.3,61.5,61.7,64.8z"/>
	<path d="M18.2,77.5L18.2,77.5c-3.4-3.4-3.4-9,0-12.5l9.4-9.4c6.9-6.9,18-6.9,24.9,0l0,0L30.7,77.5C27.2,80.9,21.6,80.9,18.2,77.5z"
		/>
</g>
<g>
	<polygon points="130,44.1 129.5,44.1 104.6,7.7 93.9,7.7 93.9,65.5 106.1,65.5 106.1,29.1 106.5,29.1 131.6,65.5 142.2,65.5 
		142.2,7.7 130,7.7 	"/>
	<path d="M183,24.4c-3.2-1.9-7-2.8-11.4-2.8c-4.4,0-8.2,0.9-11.4,2.8c-3.2,1.9-5.6,4.5-7.4,7.8s-2.6,7.3-2.6,11.7
		c0,4.4,0.9,8.3,2.6,11.7s4.2,6,7.4,7.8c3.2,1.9,7,2.8,11.4,2.8c4.4,0,8.2-0.9,11.4-2.8c3.2-1.9,5.6-4.5,7.4-7.8s2.6-7.3,2.6-11.7
		c0-4.5-0.9-8.4-2.6-11.7S186.2,26.3,183,24.4z M179.7,50.7c-0.7,2-1.7,3.5-3,4.7c-1.3,1.1-3,1.7-5,1.7c-2,0-3.7-0.6-5.1-1.7
		c-1.4-1.1-2.4-2.7-3.1-4.7s-1-4.2-1-6.7c0-2.5,0.3-4.8,1-6.7s1.7-3.5,3.1-4.7c1.4-1.1,3.1-1.7,5.1-1.7c2,0,3.7,0.6,5,1.7
		c1.3,1.1,2.3,2.7,3,4.7c0.7,2,1,4.2,1,6.7C180.7,46.4,180.4,48.7,179.7,50.7z"/>
	<path d="M221.4,56.3c-0.6,0.1-1.1,0.2-1.7,0.2c-0.8,0-1.5-0.1-2.1-0.4c-0.6-0.2-1.1-0.7-1.4-1.3c-0.3-0.6-0.5-1.5-0.5-2.6v-21h8.2
		v-9h-8.2V11.8h-12v10.4h-5.9v9h5.9v22.6c0,2.8,0.6,5.2,1.8,7.1c1.2,1.9,2.9,3.2,5.1,4.1s4.7,1.3,7.6,1.2c1.6-0.1,2.9-0.2,4-0.5
		c1.1-0.3,1.9-0.5,2.5-0.7l-1.9-8.9C222.4,56.1,222,56.2,221.4,56.3z"/>
	<path d="M237.7,4.4c-1.8,0-3.3,0.6-4.6,1.8s-1.9,2.6-1.9,4.3c0,1.7,0.6,3.1,1.9,4.3s2.8,1.8,4.6,1.8c1.8,0,3.3-0.6,4.6-1.8
		s1.9-2.6,1.9-4.3c0-1.7-0.6-3.1-1.9-4.3S239.5,4.4,237.7,4.4z"/>
	<rect x="231.6" y="22.2" width="12" height="43.3"/>
	<path d="M269,15.8c0.7-0.8,1.9-1.2,3.7-1.2c0.7,0,1.4,0.1,2.1,0.2c0.7,0.1,1.3,0.3,1.7,0.4l2.1-9c-0.8-0.2-1.9-0.5-3.4-0.8
		C273.7,5.2,272,5,270.1,5c-2.7,0-5.2,0.5-7.3,1.6c-2.1,1-3.8,2.6-5.1,4.7c-1.2,2.1-1.8,4.7-1.8,7.8v3.1h-6.1v9h6.1v34.3h12V31.2
		h8.6v-9h-8.6v-2.9C267.9,17.8,268.3,16.7,269,15.8z"/>
	<path d="M289.9,16.6c1.8,0,3.3-0.6,4.6-1.8s1.9-2.6,1.9-4.3c0-1.7-0.6-3.1-1.9-4.3s-2.8-1.8-4.6-1.8c-1.8,0-3.3,0.6-4.6,1.8
		s-1.9,2.6-1.9,4.3c0,1.7,0.6,3.1,1.9,4.3S288.1,16.6,289.9,16.6z"/>
	<rect x="283.9" y="22.2" width="12" height="43.3"/>
</g>
</svg>
